<!-- FlavorLens Favicon - Created by John Mamanao -->
<svg width="16" height="16" viewBox="0 0 16 16" fill="none" xmlns="http://www.w3.org/2000/svg">
  <!-- Gradient background -->
  <rect width="16" height="16" rx="3" fill="url(#bg)"/>
  
  <!-- Lens aperture -->
  <circle cx="8" cy="8" r="5" fill="none" stroke="white" stroke-width="0.8" opacity="0.8"/>
  <circle cx="8" cy="8" r="3" fill="none" stroke="white" stroke-width="0.6" opacity="0.6"/>
  
  <!-- Chef hat symbol -->
  <path d="M8 4c-1 0-1.8 0.8-1.8 1.8 0 0.2 0 0.4 0.1 0.6 -0.5 0.2-0.8 0.6-0.8 1.1v2.4c0 0.4 0.4 0.8 0.8 0.8h3.4c0.4 0 0.8-0.4 0.8-0.8V7.5c0-0.5-0.3-0.9-0.8-1.1 0.1-0.2 0.1-0.4 0.1-0.6C9.8 4.8 9 4 8 4z" fill="white" opacity="0.9"/>
  
  <!-- Small sparkles -->
  <circle cx="6" cy="6" r="0.3" fill="white" opacity="0.7"/>
  <circle cx="10" cy="6" r="0.3" fill="white" opacity="0.7"/>
  <circle cx="10" cy="10" r="0.3" fill="white" opacity="0.7"/>
  <circle cx="6" cy="10" r="0.3" fill="white" opacity="0.7"/>
  
  <defs>
    <linearGradient id="bg" x1="0%" y1="0%" x2="100%" y2="100%">
      <stop offset="0%" style="stop-color:#f97316"/>
      <stop offset="50%" style="stop-color:#ec4899"/>
      <stop offset="100%" style="stop-color:#8b5cf6"/>
    </linearGradient>
  </defs>
</svg>
