<svg width="32" height="32" viewBox="0 0 32 32" fill="none" xmlns="http://www.w3.org/2000/svg">
  <!-- Background circle with gradient -->
  <circle cx="16" cy="16" r="16" fill="url(#gradient)" />
  
  <!-- Lens/Camera aperture design -->
  <circle cx="16" cy="16" r="12" fill="none" stroke="white" stroke-width="1.5" opacity="0.8"/>
  <circle cx="16" cy="16" r="8" fill="none" stroke="white" stroke-width="1" opacity="0.6"/>
  
  <!-- Chef hat/food symbol -->
  <path d="M16 6c-2.5 0-4.5 2-4.5 4.5 0 0.5 0.1 1 0.3 1.4 -1.2 0.4-2 1.5-2 2.8v6c0 1.1 0.9 2 2 2h8.4c1.1 0 2-0.9 2-2v-6c0-1.3-0.8-2.4-2-2.8 0.2-0.4 0.3-0.9 0.3-1.4C20.5 8 18.5 6 16 6z" fill="white" opacity="0.9"/>
  
  <!-- Sparkle/flavor elements -->
  <circle cx="12" cy="12" r="1" fill="white" opacity="0.7"/>
  <circle cx="20" cy="12" r="0.8" fill="white" opacity="0.6"/>
  <circle cx="22" cy="20" r="1" fill="white" opacity="0.7"/>
  <circle cx="10" cy="22" r="0.8" fill="white" opacity="0.6"/>
  
  <defs>
    <linearGradient id="gradient" x1="0%" y1="0%" x2="100%" y2="100%">
      <stop offset="0%" style="stop-color:#f97316;stop-opacity:1" />
      <stop offset="50%" style="stop-color:#ec4899;stop-opacity:1" />
      <stop offset="100%" style="stop-color:#8b5cf6;stop-opacity:1" />
    </linearGradient>
  </defs>
</svg>
